<?xml version="1.0" encoding="UTF-8" standalone="no"?>
<!-- Created with Inkscape (http://www.inkscape.org/) -->

<svg
   xmlns:dc="http://purl.org/dc/elements/1.1/"
   xmlns:cc="http://creativecommons.org/ns#"
   xmlns:rdf="http://www.w3.org/1999/02/22-rdf-syntax-ns#"
   xmlns:svg="http://www.w3.org/2000/svg"
   xmlns="http://www.w3.org/2000/svg"
   xmlns:sodipodi="http://sodipodi.sourceforge.net/DTD/sodipodi-0.dtd"
   xmlns:inkscape="http://www.inkscape.org/namespaces/inkscape"
   id="svg2"
   version="1.1"
   inkscape:version="0.48.2 r9819"
   width="216"
   height="216"
   sodipodi:docname="idorobots.svg">
  <metadata
     id="metadata8">
    <rdf:RDF>
      <cc:Work
         rdf:about="">
        <dc:format>image/svg+xml</dc:format>
        <dc:type
           rdf:resource="http://purl.org/dc/dcmitype/StillImage" />
        <dc:title></dc:title>
      </cc:Work>
    </rdf:RDF>
  </metadata>
  <defs
     id="defs6" />
  <sodipodi:namedview
     pagecolor="#ffffff"
     bordercolor="#666666"
     borderopacity="1"
     objecttolerance="10"
     gridtolerance="10"
     guidetolerance="10"
     inkscape:pageopacity="0"
     inkscape:pageshadow="2"
     inkscape:window-width="1360"
     inkscape:window-height="743"
     id="namedview4"
     showgrid="false"
     inkscape:zoom="2.1851852"
     inkscape:cx="106.71222"
     inkscape:cy="102.84253"
     inkscape:window-x="0"
     inkscape:window-y="-4"
     inkscape:window-maximized="1"
     inkscape:current-layer="svg2" />
  <path
     style="fill:#ffffff;fill-opacity:1;stroke:#000000;stroke-opacity:1;stroke-width:1;stroke-miterlimit:0;stroke-dasharray:none;stroke-linejoin:miter;stroke-linecap:butt"
     d="m 7.5423781,180.45763 0,-28 27.9999999,0 28,0 0,28 0,28 -28,0 -27.9999999,0 0,-28 z m 47.9999999,0 0,-20 -20,0 -20,0 0,20 0,20 20,0 20,0 0,-20 z m -32,0 0,-12 12,0 12,0 0,12 0,12 -12,0 -12,0 0,-12 z m 64,20 0,-8 -4,0 c -4,0 -4,0 -4,4 0,4 0,4 -4,4 l -4,0 0,-8 0,-8 4,0 4,0 0,-12 0,-12 4,0 c 4,0 4,0 4,-4 0,-4 0,-4 4,-4 l 4,0 0,-20 0,-20 -8,0 -8,0 0,4 c 0,4 0,4 4,4 l 4,0 0,8 0,8 -4,0 c -4,0 -4,0 -4,-4 l 0,-4 -16,0 -16,0 0,4 c 0,4 0,4 -4,4 -4,0 -4,0 -4,4 0,4 0,4 -4,4 -4,0 -4,0 -4,-4 0,-4 0,-4 4,-4 4,0 4,0 4,-4 l 0,-4 -16,0 -15.9999999,0 0,-4 c 0,-4 0,-4 3.9999999,-4 4,0 4,0 4,-4 0,-4 0,-4 -4,-4 l -3.9999999,0 0,-8 0,-8.000003 3.9999999,0 c 4,0 4,0 4,-4 0,-4 0,-4 4,-4 4,0 4,0 4,-4 0,-4 0,-4 -4,-4 -4,0 -4,0 -4,-4 l 0,-4 8,0 8,0 0,8 0,8 4,0 c 4,0 4,0 4,-4 0,-4 0,-4 4,-4 4,0 4,0 4,4 l 0,4 8,0 8,0 0,-4 c 0,-4 0,-4 -4,-4 -4,0 -4,0 -4,-4 0,-4 0,-4 4,-4 4,0 4,0 4,4 0,4 0,4 4,4 4,0 4,0 4,4 0,4 0,4 4,4 4,0 4,0 4,4 l 0,4 -12,0 -12,0 0,4.000003 0,4 20,0 20,0 0,-4 c 0,-4.000003 0,-4.000003 -4,-4.000003 l -4,0 0,-12 0,-12 -8,0 -8,0 0,-12 0,-12 4,0 c 4,0 4,0 4,-4 0,-4 0,-4 -4,-4 -4,0 -4,0 -4,-4 0,-4 0,-4 4,-4 4,0 4,0 4,-4 0,-4 0,-4 4,-4 4,0 4,0 4,-4 l 0,-4 15.999992,0 16,0 0,-4 c 0,-3.9999998 0,-3.9999998 4,-3.9999998 l 4,0 0,7.9999998 0,8 -4,0 c -4,0 -4,0 -4,4 l 0,4 8,0 8,0 0,4 c 0,4 0,4 4,4 l 4,0 0,12 0,12 -4,0 -4,0 0,8 0,8 4,0 4,0 0,8 0,8 8,0 8,0 0,-4 c 0,-4 0,-4 -4,-4 l -4,0 0,-8 0,-8 8,0 8,0 0,8 0,8 4,0 4,0 0,-8 0,-8 4,0 4,0 0,8 0,8 4,0 c 4,0 4,0 4,-4 l 0,-4 8,0 8,0 0,8 0,8 -4,0 c -4,0 -4,0 -4,-4 0,-4 0,-4 -4,-4 -4,0 -4,0 -4,4 0,4 0,4 -4,4 -4,0 -4,0 -4,4.000003 0,4 0,4 -4,4 -4,0 -4,0 -4,-4 0,-4.000003 0,-4.000003 -4,-4.000003 l -4,0 0,12.000003 0,12 12,0 12,0 0,-4 c 0,-4 0,-4 4,-4 4,0 4,0 4,-4 0,-4 0,-4 4,-4 l 4,0 0,12 0,12 -4,0 c -4,0 -4,0 -4,-4 0,-4 0,-4 -4,-4 -4,0 -4,0 -4,4 l 0,4 -8,0 -8,0 0,12 0,12 4,0 c 4,0 4,0 4,-4 0,-4 0,-4 4,-4 4,0 4,0 4,-4 0,-4 0,-4 4,-4 4,0 4,0 4,4 0,4 0,4 4,4 l 4,0 0,8 0,8 -4,0 -4,0 0,-8 0,-8 -4,0 c -4,0 -4,0 -4,4 0,4 0,4 -4,4 -4,0 -4,0 -4,4 0,4 0,4 -4,4 -4,0 -4,0 -4,4 0,4 0,4 4,4 4,0 4,0 4,4 l 0,4 8,0 8,0 0,-4 c 0,-4 0,-4 4,-4 4,0 4,0 4,4 0,4 0,4 -4,4 -4,0 -4,0 -4,4 0,4 0,4 4,4 4,0 4,0 4,4 l 0,4 -8,0 -8,0 0,-4 0,-4 -8,0 -8,0 0,8 0,8 4,0 c 4,0 4,0 4,4 0,4 0,4 -4,4 -4,0 -4,0 -4,-4 l 0,-4 -16,0 -16,0 0,4 c 0,4 0,4 -4,4 l -4,0 0,-8 0,-8 -4,0 c -4,0 -4,0 -4,4 0,4 0,4 -4,4 -4,0 -4,0 -4,4 0,4 0,4 -4,4 -4,0 -4,0 -4,-4 0,-4 0,-4 4,-4 l 4,0 0,-8 0,-8 -4,0 -4,0 0,-12 0,-12 -4,0 c -4,0 -4,0 -4,4 0,4 0,4 -3.999992,4 -4,0 -4,0 -4,-4 0,-4 0,-4 -4,-4 l -4,0 0,8 0,8 4,0 c 4,0 4,0 4,4 0,4 0,4 -4,4 -4,0 -4,0 -4,4 l 0,4 8,0 7.999992,0 0,4 c 0,4 0,4 -3.999992,4 -4,0 -4,0 -4,4 0,4 0,4 -4,4 l -4,0 0,-8 z m 79.999992,-16 0,-8 -8,0 -8,0 0,8 0,8 8,0 8,0 0,-8 z m -32,-4 c 0,-4 0,-4 -4,-4 -4,0 -4,0 -4,-4 0,-4 0,-4 -4,-4 -4,0 -4,0 -4,4 0,4 0,4 4,4 4,0 4,0 4,4 0,4 0,4 4,4 4,0 4,0 4,-4 z m 32,-24 0,-12 -12,0 -12,0 0,12 0,12 12,0 12,0 0,-12 z m -16,0 c 0,-4 0,-4 4,-4 4,0 4,0 4,4 0,4 0,4 -4,4 -4,0 -4,0 -4,-4 z m -16,-8 0,-12 -8,0 -8,0 0,4 c 0,4 0,4 -4,4 -4,0 -4,0 -4,-4 0,-4 0,-4 -4,-4 l -4,0 0,8 0,8 8,0 8,0 0,4 0,4 8,0 8,0 0,-12 z m 16,-16 c 0,-4 0,-4 -4,-4 -4,0 -4,0 -4,-4 0,-4 0,-4 -4,-4 -4,0 -4,0 -4,4 0,4 0,4 4,4 4,0 4,0 4,4 0,4 0,4 4,4 4,0 4,0 4,-4 z m 16,-4 0,-8 -4,0 -4,0 0,8 0,8 4,0 4,0 0,-8 z m -40,-8 0,-8 -4,0 -4,0 0,8 0,8 4,0 4,0 0,-8 z m -79.999992,-4 0,-4 -8,0 -8,0 0,-4 c 0,-4 0,-4 -4,-4 -4,0 -4,0 -4,-4 0,-4.000003 0,-4.000003 4,-4.000003 4,0 4,0 4,-4 0,-4 0,-4 -4,-4 -4,0 -4,0 -4,4 0,4 0,4 -4,4 -4,0 -4,0 -4,4.000003 0,4 0,4 4,4 l 4,0 0,8 0,8 12,0 12,0 0,-4 z m 16,0 c 0,-4 0,-4 -4,-4 -4,0 -4,0 -4,4 0,4 0,4 4,4 4,0 4,0 4,-4 z m 47.999992,-8 c 0,-4 0,-4 4,-4 4,0 4,0 4,-4 0,-4.000003 0,-4.000003 4,-4.000003 4,0 4,0 4,4.000003 0,4 0,4 4,4 4,0 4,0 4,4 l 0,4 8,0 8,0 0,-4 0,-4 -8,0 -8,0 0,-4 c 0,-4.000003 0,-4.000003 -4,-4.000003 l -4,0 0,-16 0,-16 4,0 4,0 0,-12 0,-12 -8,0 -8,0 0,8 0,8 -4,0 -4,0 0,-8 0,-8 -4,0 -4,0 0,-8 0,-8 -7.999992,0 -8,0 0,4 c 0,4 0,4 -4,4 -4,0 -4,0 -4,4 0,4 0,4 4,4 4,0 4,0 4,4 l 0,4 8,0 7.999992,0 0,4 c 0,4 0,4 -3.999992,4 -4,0 -4,0 -4,4 0,4 0,4 4,4 3.999992,0 3.999992,0 3.999992,-4 0,-4 0,-4 4,-4 l 4,0 0,24 0,24.000003 -4,0 c -4,0 -4,0 -4,4 0,4 0,4 4,4 4,0 4,0 4,-4 z m 8,-48.000003 c 0,-4 0,-4 4,-4 4,0 4,0 4,4 0,4 0,4 -4,4 -4,0 -4,0 -4,-4 z m -31.999992,-24 c 0,-4 0,-4 4,-4 4,0 4,0 4,4 0,4 0,4 -4,4 -4,0 -4,0 -4,-4 z m -40,60 0,-8 -4,0 -4,0 0,8 0,8.000003 4,0 4,0 0,-8.000003 z m 55.999992,-4 c 0,-4 0,-4 -3.999992,-4 -4,0 -4,0 -4,4 0,4 0,4 4,4 3.999992,0 3.999992,0 3.999992,-4 z m -15.999992,-32 c 0,-4 0,-4 -4,-4 -4,0 -4,0 -4,4 0,4 0,4 4,4 4,0 4,0 4,-4 z M 199.54237,204.45763 c 0,-4 0,-4 4,-4 4,0 4,0 4,4 0,4 0,4 -4,4 -4,0 -4,0 -4,-4 z m -127.999992,-56 c 0,-4 0,-4 4,-4 4,0 4,0 4,4 0,4 0,4 -4,4 -4,0 -4,0 -4,-4 z m -63.9999999,-8 0,-4 7.9999999,0 8,0 0,4 0,4 -8,0 -7.9999999,0 0,-4 z m 47.9999999,0 c 0,-4 0,-4 4,-4 4,0 4,0 4,4 0,4 0,4 -4,4 -4,0 -4,0 -4,-4 z M 7.5423781,36.457627 l 0,-27.9999998 27.9999999,0 28,0 0,27.9999998 0,28 -28,0 -27.9999999,0 0,-28 z m 47.9999999,0 0,-20 -20,0 -20,0 0,20 0,20 20,0 20,0 0,-20 z m -32,0 0,-12 12,0 12,0 0,12 0,12 -12,0 -12,0 0,-12 z m 127.999992,0 0,-27.9999998 28,0 28,0 0,27.9999998 0,28 -28,0 -28,0 0,-28 z m 48,0 0,-20 -20,0 -20,0 0,20 0,20 20,0 20,0 0,-20 z m -32,0 0,-12 12,0 12,0 0,12 0,12 -12,0 -12,0 0,-12 z"
     id="path2993"
     inkscape:connector-curvature="0" />
</svg>
